<svg width="26" height="34" viewBox="0 0 26 34" fill="none" xmlns="http://www.w3.org/2000/svg">
<path d="M15.0716 11.5118L14.1877 12.3957L14.1877 12.3957L15.0716 11.5118ZM7.91672 24.0834C7.22636 24.0834 6.66672 24.643 6.66672 25.3334C6.66672 26.0237 7.22636 26.5834 7.91672 26.5834V24.0834ZM14.5834 26.5834C15.2737 26.5834 15.8334 26.0237 15.8334 25.3334C15.8334 24.643 15.2737 24.0834 14.5834 24.0834V26.5834ZM7.91672 17.4168C7.22636 17.4168 6.66672 17.9764 6.66672 18.6668C6.66672 19.3571 7.22636 19.9168 7.91672 19.9168L7.91672 17.4168ZM17.9167 19.9168C18.6071 19.9168 19.1667 19.3571 19.1667 18.6668C19.1667 17.9764 18.6071 17.4168 17.9167 17.4168V19.9168ZM17.2263 2.97631L18.1102 2.09243L18.1102 2.09243L17.2263 2.97631ZM23.607 9.35702L22.7231 10.2409V10.2409L23.607 9.35702ZM24.4565 10.3859L25.6113 9.90753V9.90753L24.4565 10.3859ZM23.607 31.0237L22.7231 30.1398L23.607 31.0237ZM13.3334 2V8.66667H15.8334V2H13.3334ZM17.9168 13.25H24.5834V10.75H17.9168V13.25ZM13.3334 8.66667C13.3334 9.41701 13.3308 10.1055 13.4056 10.662C13.4853 11.2545 13.6727 11.8807 14.1877 12.3957L15.9555 10.628C15.9547 10.6272 15.9547 10.6272 15.9552 10.6278C15.9557 10.6283 15.9559 10.6287 15.9559 10.6286C15.9558 10.6285 15.9549 10.6271 15.9532 10.6239C15.9515 10.6207 15.9488 10.6151 15.9454 10.6067C15.9304 10.5704 15.9049 10.4898 15.8833 10.3289C15.8361 9.97769 15.8334 9.48768 15.8334 8.66667H13.3334ZM17.9168 10.75C17.0958 10.75 16.6057 10.7473 16.2545 10.7001C16.0936 10.6785 16.013 10.653 15.9767 10.6381C15.9683 10.6346 15.9628 10.6319 15.9595 10.6302C15.9564 10.6286 15.955 10.6276 15.9548 10.6276C15.9547 10.6275 15.9551 10.6277 15.9557 10.6282C15.9563 10.6287 15.9562 10.6287 15.9555 10.628L14.1877 12.3957C14.7027 12.9108 15.329 13.0982 15.9214 13.1778C16.4779 13.2527 17.1664 13.25 17.9168 13.25V10.75ZM7.91672 26.5834H14.5834V24.0834H7.91672V26.5834ZM7.91672 19.9168H17.9167V17.4168L7.91672 17.4168L7.91672 19.9168ZM7.91667 3.25H14.8693V0.75H7.91667V3.25ZM17.9167 30.75H7.91667V33.25H17.9167V30.75ZM2.5 25.3333V8.66667H0V25.3333H2.5ZM23.3333 11.714V25.3333H25.8333V11.714H23.3333ZM16.3424 3.86019L22.7231 10.2409L24.4909 8.47314L18.1102 2.09243L16.3424 3.86019ZM25.8333 11.714C25.8333 11.1348 25.8555 10.4969 25.6113 9.90753L23.3016 10.8642C23.3017 10.8643 23.3019 10.8648 23.3023 10.8664C23.3029 10.8681 23.3042 10.8728 23.3061 10.8817C23.31 10.9005 23.316 10.9371 23.3211 11.0041C23.3325 11.1545 23.3333 11.3551 23.3333 11.714H25.8333ZM22.7231 10.2409C22.9769 10.4947 23.1182 10.6371 23.2165 10.7516C23.2603 10.8026 23.2819 10.8327 23.2924 10.8487C23.2974 10.8563 23.2998 10.8606 23.3006 10.8622C23.3014 10.8637 23.3016 10.8642 23.3016 10.8642L25.6113 9.90753C25.3672 9.31811 24.9005 8.88274 24.4909 8.47314L22.7231 10.2409ZM7.91667 30.75C6.30998 30.75 5.23071 30.7473 4.42565 30.6391C3.65655 30.5357 3.32739 30.357 3.11019 30.1398L1.34243 31.9076C2.10154 32.6667 3.04621 32.9761 4.09253 33.1168C5.1029 33.2527 6.38066 33.25 7.91667 33.25V30.75ZM0 25.3333C0 26.8693 -0.00265467 28.1471 0.133185 29.1575C0.27386 30.2038 0.583311 31.1485 1.34243 31.9076L3.11019 30.1398C2.893 29.9226 2.7143 29.5934 2.61089 28.8243C2.50265 28.0193 2.5 26.94 2.5 25.3333H0ZM17.9167 33.25C19.4527 33.25 20.7304 33.2527 21.7408 33.1168C22.7871 32.9761 23.7318 32.6667 24.4909 31.9076L22.7231 30.1398C22.5059 30.357 22.1768 30.5357 21.4077 30.6391C20.6026 30.7473 19.5234 30.75 17.9167 30.75V33.25ZM23.3333 25.3333C23.3333 26.94 23.3307 28.0193 23.2224 28.8243C23.119 29.5934 22.9403 29.9226 22.7231 30.1398L24.4909 31.9076C25.25 31.1485 25.5595 30.2038 25.7002 29.1575C25.836 28.1471 25.8333 26.8693 25.8333 25.3333H23.3333ZM14.8693 3.25C15.2282 3.25 15.4288 3.25083 15.5792 3.26226C15.6462 3.26736 15.6829 3.27335 15.7016 3.27726C15.7105 3.27911 15.7152 3.28047 15.717 3.28099C15.7186 3.28148 15.719 3.28168 15.7191 3.28172L16.6758 0.972018C16.0864 0.727874 15.4485 0.75 14.8693 0.75V3.25ZM18.1102 2.09243C17.7006 1.68283 17.2652 1.21616 16.6758 0.972018L15.7191 3.28172C15.7192 3.28175 15.7196 3.28192 15.7211 3.28272C15.7227 3.28357 15.727 3.28595 15.7346 3.29093C15.7506 3.30142 15.7808 3.32308 15.8318 3.36686C15.9462 3.46514 16.0886 3.60639 16.3424 3.8602L18.1102 2.09243ZM7.91667 0.75C6.38066 0.75 5.1029 0.747345 4.09253 0.883185C3.04621 1.02386 2.10154 1.33331 1.34243 2.09243L3.11019 3.86019C3.32739 3.643 3.65655 3.4643 4.42565 3.36089C5.23072 3.25265 6.30998 3.25 7.91667 3.25V0.75ZM2.5 8.66667C2.5 7.05998 2.50265 5.98071 2.61089 5.17565C2.7143 4.40655 2.893 4.07739 3.11019 3.86019L1.34243 2.09243C0.583311 2.85154 0.27386 3.79621 0.133185 4.84253C-0.00265467 5.8529 0 7.13066 0 8.66667H2.5Z" fill="#3E4462"/>
</svg>
