<svg width="27" height="32" viewBox="0 0 27 32" fill="none" xmlns="http://www.w3.org/2000/svg">
<path d="M9.05285 14.1522L8.50937 13.8261C7.59892 13.2768 6.8198 12.5348 6.22676 11.6522H1.33545L3.50936 31H22.8572L25.0311 11.6522H20.1398C19.4707 12.5754 18.6199 13.3521 17.6398 13.9348M9.05285 14.1522C10.3179 14.8522 11.7375 15.2258 13.1833 15.2391H13.292M9.05285 14.1522V1H13.292V15.2391M13.292 15.2391C14.8329 15.2076 16.336 14.7567 17.6398 13.9348M13.292 15.2391V5.99999H17.6398V13.9348M17.6398 13.9348V2.30434H21.9876V11.6522M4.70502 11.6522V3.06521H9.05285V13.8261M17.3137 22.9565C17.3137 25.2377 15.4644 27.087 13.1833 27.087C10.9021 27.087 9.05285 25.2377 9.05285 22.9565C9.05285 20.6753 10.9021 18.8261 13.1833 18.8261C15.4644 18.8261 17.3137 20.6753 17.3137 22.9565Z" stroke="#3E4462" stroke-width="2" stroke-linecap="round" stroke-linejoin="round"/>
</svg>
