<svg width="38" height="34" viewBox="0 0 38 34" fill="none" xmlns="http://www.w3.org/2000/svg">
<path d="M29.1716 17.7959H32.3553C32.8479 17.7795 33.3387 17.8624 33.7987 18.0396C34.2586 18.2169 34.6782 18.4848 35.0323 18.8276C35.3865 19.1703 35.6681 19.5809 35.8603 20.0348C36.0525 20.4886 36.1514 20.9765 36.1512 21.4694C36.1512 22.4761 35.7512 23.4416 35.0394 24.1535C34.3275 24.8654 33.362 25.2653 32.3553 25.2653H4.92667C4.43378 25.2656 3.94591 25.1667 3.49205 24.9745C3.03819 24.7822 2.62763 24.5006 2.28487 24.1464C1.9421 23.7923 1.67412 23.3727 1.49688 22.9128C1.31964 22.4529 1.23677 21.962 1.2532 21.4694C1.23609 20.9824 1.31944 20.4971 1.498 20.0436C1.67655 19.5902 1.94652 19.1784 2.29111 18.8338C2.63569 18.4892 3.04749 18.2193 3.50091 18.0407C3.95433 17.8621 4.43965 17.7788 4.92667 17.7959H15.7022M11.7838 7.5102L13.2532 9.10204M25.0083 6.89796L26.6002 8.61224M17.6614 7.63266L19.3757 6.04082M4.80426 25.2653H32.4777V27.102C32.4777 28.4011 31.9617 29.6469 31.0431 30.5654C30.1246 31.484 28.8788 32 27.5797 32H9.70222C8.4032 32 7.15738 31.484 6.23884 30.5654C5.32029 29.6469 4.80426 28.4011 4.80426 27.102V25.2653ZM36.1512 15.3469C36.142 15.9929 35.8779 16.6091 35.4165 17.0612C35.2019 17.3016 34.9371 17.4919 34.6409 17.6188C34.3447 17.7458 34.0243 17.8062 33.7022 17.7959H27.3349L23.1716 22.5714L19.0083 17.7959H3.57978C3.26368 17.7964 2.95078 17.7324 2.66022 17.6079C2.36966 17.4834 2.10751 17.301 1.8898 17.0718C1.67208 16.8426 1.50336 16.5715 1.39392 16.2749C1.28447 15.9784 1.23659 15.6626 1.25322 15.3469C1.23659 15.0313 1.28447 14.7155 1.39392 14.419C1.50336 14.1224 1.67208 13.8513 1.8898 13.6221C2.10751 13.3929 2.36966 13.2105 2.66022 13.086C2.95078 12.9615 3.26368 12.8975 3.57978 12.898H33.7022C34.3517 12.898 34.9747 13.156 35.4339 13.6152C35.8932 14.0745 36.1512 14.6974 36.1512 15.3469ZM15.3348 2H22.0695C24.8624 2 27.5409 3.10946 29.5158 5.08434C31.4907 7.05921 32.6002 9.73773 32.6002 12.5306H4.80426C4.80426 9.73773 5.91371 7.05921 7.88858 5.08434C9.86346 3.10946 12.542 2 15.3348 2Z" stroke="#3E4462" stroke-width="2.5" stroke-linecap="round" stroke-linejoin="round"/>
</svg>
