<svg width="31" height="30" viewBox="0 0 31 30" fill="none" xmlns="http://www.w3.org/2000/svg">
<path d="M30.25 25.3846C30.25 27.9336 28.1836 30 25.6346 30C23.0856 30 21.0192 27.9336 21.0192 25.3846C21.0192 22.8356 23.0856 20.7692 25.6346 20.7692C28.1836 20.7692 30.25 22.8356 30.25 25.3846Z" fill="#3E4462"/>
<path d="M30.25 4.61538C30.25 7.16439 28.1836 9.23077 25.6346 9.23077C23.0856 9.23077 21.0192 7.16439 21.0192 4.61538C21.0192 2.06638 23.0856 0 25.6346 0C28.1836 0 30.25 2.06638 30.25 4.61538Z" fill="#3E4462"/>
<path d="M9.48077 25.3846C9.48077 27.9336 7.41439 30 4.86538 30C2.31638 30 0.25 27.9336 0.25 25.3846C0.25 22.8356 2.31638 20.7692 4.86538 20.7692C7.41439 20.7692 9.48077 22.8356 9.48077 25.3846Z" fill="#3E4462"/>
<path d="M9.48077 4.61538C9.48077 7.16439 7.41439 9.23077 4.86538 9.23077C2.31638 9.23077 0.25 7.16439 0.25 4.61538C0.25 2.06638 2.31638 0 4.86538 0C7.41439 0 9.48077 2.06638 9.48077 4.61538Z" fill="#3E4462"/>
</svg>
