<svg width="23" height="34" viewBox="0 0 23 34" fill="none" xmlns="http://www.w3.org/2000/svg">
<path d="M21.3299 10.6106C21.3141 14.7713 20.8472 18.9186 19.9371 22.9829C19.3039 25.9488 18.9808 28.9701 18.9728 32H4.5085C4.50043 28.9701 4.17735 25.9488 3.54423 22.9829C2.6341 18.9186 2.1672 14.7713 2.15137 10.6106M21.3299 10.4008C21.3502 11.1364 21.3144 11.8724 21.2228 12.6027H15.9728V19.3131C15.9728 19.8693 15.747 20.4026 15.3451 20.7959C14.9433 21.1892 14.3982 21.4101 13.8299 21.4101C13.2616 21.4101 12.7165 21.1892 12.3147 20.7959C11.9128 20.4026 11.6871 19.8693 11.6871 19.3131V12.4978H2.25852C2.25852 11.8687 2.15137 11.0299 2.15137 10.296C2.15137 9.2949 2.55774 8.33481 3.28109 7.62694C4.00445 6.91906 4.98553 6.52138 6.00851 6.52138H6.54422C7.00653 5.16076 7.90867 3.98429 9.11445 3.16965C10.3202 2.35501 11.7641 1.94643 13.2281 2.00563C14.6921 2.06484 16.0966 2.58859 17.2296 3.49781C18.3626 4.40702 19.1625 5.65232 19.5085 7.04563C20.096 7.38901 20.5764 7.88318 20.8974 8.47461C21.2185 9.06604 21.368 9.73217 21.3299 10.4008Z" stroke="#3E4462" stroke-width="2.5" stroke-linecap="round" stroke-linejoin="round"/>
</svg>
