<svg width="31" height="34" viewBox="0 0 31 34" fill="none" xmlns="http://www.w3.org/2000/svg">
<path d="M2.65492 22L2.25964 20.8141H2.25964L2.65492 22ZM2.07614 26.5445L2.64362 25.4308L2.64362 25.4308L2.07614 26.5445ZM1.68184 26.1502L0.568077 26.7177L0.568078 26.7177L1.68184 26.1502ZM29.3423 26.1502L30.4561 26.7177V26.7177L29.3423 26.1502ZM28.948 26.5445L29.5155 27.6583L28.948 26.5445ZM28.3692 22L28.7645 20.8141H28.7645L28.3692 22ZM20.7004 26.6429L21.8904 26.26L21.6114 25.3929H20.7004V26.6429ZM10.3237 26.6429V25.3929H9.41276L9.13377 26.26L10.3237 26.6429ZM6.04778 12.7143C6.04778 7.48731 10.2851 3.25 15.5121 3.25V0.75C8.90437 0.75 3.54778 6.10659 3.54778 12.7143H6.04778ZM15.5121 3.25C20.739 3.25 24.9764 7.48731 24.9764 12.7143H27.4764C27.4764 6.10659 22.1198 0.75 15.5121 0.75V3.25ZM24.9764 12.7143V19.0269H27.4764V12.7143H24.9764ZM3.54778 12.7143V19.0269H6.04778V12.7143H3.54778ZM28.1906 23.4865V25.1992H30.6906V23.4865H28.1906ZM27.997 25.3929H3.02711V27.8929H27.997V25.3929ZM2.8335 25.1992V23.4865H0.333496V25.1992H2.8335ZM2.8335 23.4865C2.8335 23.3501 2.92079 23.229 3.05021 23.1859L2.25964 20.8141C1.10937 21.1976 0.333496 22.274 0.333496 23.4865H2.8335ZM3.02711 25.3929C2.89792 25.3929 2.79805 25.3928 2.71212 25.3915C2.62616 25.3901 2.57211 25.3876 2.5363 25.3847C2.46314 25.3787 2.53454 25.3752 2.64362 25.4308L1.50865 27.6583C1.81073 27.8122 2.10496 27.8578 2.33272 27.8764C2.54588 27.8938 2.79508 27.8929 3.02711 27.8929V25.3929ZM0.333496 25.1992C0.333496 25.4313 0.332524 25.6805 0.34994 25.8936C0.368548 26.1214 0.414157 26.4156 0.568077 26.7177L2.7956 25.5827C2.85117 25.6918 2.84761 25.7632 2.84164 25.6901C2.83871 25.6542 2.83623 25.6002 2.83488 25.5142C2.83353 25.4283 2.8335 25.3284 2.8335 25.1992H0.333496ZM2.64362 25.4308C2.70906 25.4641 2.76225 25.5173 2.79559 25.5827L0.568078 26.7177C0.774422 27.1227 1.10367 27.4519 1.50865 27.6583L2.64362 25.4308ZM28.1906 25.1992C28.1906 25.3284 28.1906 25.4283 28.1893 25.5142C28.1879 25.6002 28.1854 25.6542 28.1825 25.6901C28.1765 25.7632 28.173 25.6918 28.2285 25.5827L30.4561 26.7177C30.61 26.4156 30.6556 26.1214 30.6742 25.8936C30.6916 25.6805 30.6906 25.4313 30.6906 25.1992H28.1906ZM27.997 27.8929C28.2291 27.8929 28.4783 27.8938 28.6914 27.8764C28.9192 27.8578 29.2134 27.8122 29.5155 27.6583L28.3805 25.4308C28.4896 25.3752 28.561 25.3787 28.4878 25.3847C28.452 25.3876 28.398 25.3901 28.312 25.3915C28.2261 25.3928 28.1262 25.3929 27.997 25.3929V27.8929ZM28.2285 25.5827C28.2619 25.5173 28.3151 25.4641 28.3805 25.4308L29.5155 27.6583C29.9205 27.4519 30.2497 27.1227 30.4561 26.7177L28.2285 25.5827ZM27.9739 23.1859C28.1033 23.229 28.1906 23.3501 28.1906 23.4865H30.6906C30.6906 22.274 29.9148 21.1976 28.7645 20.8141L27.9739 23.1859ZM3.54778 19.0269C3.54778 19.8378 3.02891 20.5577 2.25964 20.8141L3.05021 23.1859C4.84033 22.5891 6.04778 20.9139 6.04778 19.0269H3.54778ZM24.9764 19.0269C24.9764 20.9139 26.1838 22.5891 27.9739 23.1859L28.7645 20.8141C27.9952 20.5577 27.4764 19.8378 27.4764 19.0269H24.9764ZM19.6192 27.7143C19.6192 29.145 18.0551 30.75 15.5121 30.75V33.25C18.8864 33.25 22.1192 31.0175 22.1192 27.7143H19.6192ZM15.5121 30.75C12.969 30.75 11.4049 29.145 11.4049 27.7143H8.90492C8.90492 31.0175 12.1377 33.25 15.5121 33.25V30.75ZM19.5105 27.0257C19.5819 27.2477 19.6192 27.4776 19.6192 27.7143H22.1192C22.1192 27.211 22.0393 26.723 21.8904 26.26L19.5105 27.0257ZM11.4049 27.7143C11.4049 27.4776 11.4422 27.2477 11.5136 27.0257L9.13377 26.26C8.98483 26.723 8.90492 27.211 8.90492 27.7143H11.4049ZM20.7004 25.3929H10.3237V27.8929H20.7004V25.3929Z" fill="#3E4462"/>
</svg>
