<svg width="71" height="70" viewBox="0 0 71 70" fill="none" xmlns="http://www.w3.org/2000/svg">
<path d="M11.9167 11.6667H29.4167V29.1667H11.9167V11.6667ZM58.5833 11.6667V29.1667H41.0833V11.6667H58.5833ZM41.0833 43.75H46.9167V37.9167H41.0833V32.0833H46.9167V37.9167H52.75V32.0833H58.5833V37.9167H52.75V43.75H58.5833V52.5H52.75V58.3333H46.9167V52.5H38.1667V58.3333H32.3333V46.6667H41.0833V43.75ZM46.9167 43.75V52.5H52.75V43.75H46.9167ZM11.9167 58.3333V40.8333H29.4167V58.3333H11.9167ZM17.75 17.5V23.3333H23.5833V17.5H17.75ZM46.9167 17.5V23.3333H52.75V17.5H46.9167ZM17.75 46.6667V52.5H23.5833V46.6667H17.75ZM11.9167 32.0833H17.75V37.9167H11.9167V32.0833ZM26.5 32.0833H38.1667V43.75H32.3333V37.9167H26.5V32.0833ZM32.3333 17.5H38.1667V29.1667H32.3333V17.5ZM6.08333 5.83333V17.5H0.25V5.83333C0.25 4.28624 0.864582 2.80251 1.95854 1.70854C3.05251 0.614582 4.53624 0 6.08333 0L17.75 0V5.83333H6.08333ZM64.4167 0C65.9638 0 67.4475 0.614582 68.5415 1.70854C69.6354 2.80251 70.25 4.28624 70.25 5.83333V17.5H64.4167V5.83333H52.75V0H64.4167ZM6.08333 52.5V64.1667H17.75V70H6.08333C4.53624 70 3.05251 69.3854 1.95854 68.2915C0.864582 67.1975 0.25 65.7138 0.25 64.1667V52.5H6.08333ZM64.4167 64.1667V52.5H70.25V64.1667C70.25 65.7138 69.6354 67.1975 68.5415 68.2915C67.4475 69.3854 65.9638 70 64.4167 70H52.75V64.1667H64.4167Z" fill="#3E4462"/>
</svg>
